<svg width="393" height="396" viewBox="0 0 393 396" fill="none" xmlns="http://www.w3.org/2000/svg">
<path d="M207.9 15C207.9 23.2323 201.45 29.9 193.5 29.9C185.55 29.9 179.1 23.2323 179.1 15C179.1 6.76773 185.55 0.1 193.5 0.1C201.45 0.1 207.9 6.76773 207.9 15Z" fill="url(#paint0_radial_2_325)" stroke="black" stroke-width="0.2"/>
<rect x="66.5" y="192.5" width="38" height="201" stroke="url(#paint1_linear_2_325)" stroke-width="5"/>
<rect x="141" y="190" width="43" height="206" fill="black"/>
<rect x="298.5" y="192.5" width="38" height="201" stroke="url(#paint2_linear_2_325)" stroke-width="5"/>
<rect x="221.5" y="268.5" width="37" height="125" stroke="url(#paint3_linear_2_325)" stroke-width="5"/>
<line x1="262.885" y1="192.793" x2="104.885" y2="270.793" stroke="#04D700" stroke-width="4"/>
<rect x="114" y="163" width="27" height="28" fill="#00CBD7"/>
<rect x="261" y="173" width="18" height="17" fill="#03464A"/>
<path d="M36.045 135.25L196.5 46.8543L356.955 135.25H36.045Z" stroke="url(#paint4_linear_2_325)" stroke-width="5"/>
<defs>
<radialGradient id="paint0_radial_2_325" cx="0" cy="0" r="1" gradientUnits="userSpaceOnUse" gradientTransform="translate(193.5 15) rotate(90) scale(15 14.5)">
<stop stop-color="#0F0BAB"/>
<stop offset="0.0925926" stop-color="#4C9DA3"/>
<stop offset="0.467593" stop-color="#0F0D83" stop-opacity="0.738347"/>
</radialGradient>
<linearGradient id="paint1_linear_2_325" x1="85.5" y1="190" x2="85.5" y2="396" gradientUnits="userSpaceOnUse">
<stop stop-color="#EA910D"/>
<stop offset="1" stop-color="#FB004D"/>
</linearGradient>
<linearGradient id="paint2_linear_2_325" x1="317.5" y1="190" x2="317.5" y2="396" gradientUnits="userSpaceOnUse">
<stop stop-color="#00CBD7"/>
<stop offset="1" stop-color="#9D3FE7"/>
</linearGradient>
<linearGradient id="paint3_linear_2_325" x1="240" y1="266" x2="240" y2="396" gradientUnits="userSpaceOnUse">
<stop stop-color="#00CBD7"/>
<stop offset="1" stop-color="#9D3FE7"/>
</linearGradient>
<linearGradient id="paint4_linear_2_325" x1="196.5" y1="44" x2="196.5" y2="169" gradientUnits="userSpaceOnUse">
<stop stop-color="#00CBD7"/>
<stop offset="1" stop-color="#9D3FE7"/>
</linearGradient>
</defs>
</svg>
