<svg width="607" height="482" viewBox="0 0 607 482" fill="none" xmlns="http://www.w3.org/2000/svg">
<path d="M304 310.921L266.113 333L228 310.693V266.535L265.887 244L304 265.852V310.921Z" stroke="url(#paint0_linear_72_60)"/>
<path d="M417 155.921L379.113 178L341 155.693V111.535L378.887 89L417 110.852V155.921Z" stroke="url(#paint1_linear_72_60)"/>
<path d="M493 287.921L455.113 310L417 287.693V243.535L454.887 221L493 242.852V287.921Z" stroke="url(#paint2_linear_72_60)"/>
<path d="M342 244.921L304.113 267L266 244.693V200.535L303.887 178L342 199.852V244.921Z" stroke="url(#paint3_linear_72_60)"/>
<path d="M455 89.9207L417.113 112L379 89.6931V45.5345L416.887 23L455 44.8517V89.9207Z" stroke="url(#paint4_linear_72_60)"/>
<path d="M531 221.921L493.113 244L455 221.693V177.535L492.887 155L531 176.852V221.921Z" stroke="url(#paint5_linear_72_60)"/>
<path d="M380 310.921L342.113 333L304 310.693V266.535L341.887 244L380 265.852V310.921Z" stroke="url(#paint6_linear_72_60)"/>
<path d="M493 155.921L455.113 178L417 155.693V111.535L454.887 89L493 110.852V155.921Z" stroke="url(#paint7_linear_72_60)"/>
<path d="M569 287.921L531.113 310L493 287.693V243.535L530.887 221L569 242.852V287.921Z" stroke="url(#paint8_linear_72_60)"/>
<path d="M342 288.169L304.113 310L266 287.944V244.281L303.887 222L342 243.606V288.169Z" stroke="url(#paint9_linear_72_60)"/>
<path d="M455 133.169L417.113 155L379 132.944V89.2813L416.887 67L455 88.6061V133.169Z" stroke="url(#paint10_linear_72_60)"/>
<path d="M531 265.169L493.113 287L455 264.944V221.281L492.887 199L531 220.606V265.169Z" stroke="url(#paint11_linear_72_60)"/>
<path d="M380 222.169L342.113 244L304 221.944V178.281L341.887 156L380 177.606V222.169Z" stroke="url(#paint12_linear_72_60)"/>
<path d="M493 67.1688L455.113 89L417 66.9437V23.2813L454.887 1L493 22.6061V67.1688Z" stroke="url(#paint13_linear_72_60)"/>
<path d="M569 199.169L531.113 221L493 198.944V155.281L530.887 133L569 154.606V199.169Z" stroke="url(#paint14_linear_72_60)"/>
<path d="M417 288.169L379.612 310L342 287.944V244.281L379.388 222L417 243.606V288.169Z" stroke="url(#paint15_linear_72_60)"/>
<path d="M530 133.169L492.612 155L455 132.944V89.2813L492.388 67L530 88.6061V133.169Z" stroke="url(#paint16_linear_72_60)"/>
<path d="M606 265.169L568.612 287L531 264.944V221.281L568.388 199L606 220.606V265.169Z" stroke="url(#paint17_linear_72_60)"/>
<path d="M515 458.169L477.113 480L439 457.944V414.281L476.887 392L515 413.606V458.169Z" stroke="url(#paint18_linear_72_60)"/>
<path d="M439 415.169L401.113 437L363 414.944V371.281L400.887 349L439 370.606V415.169Z" stroke="url(#paint19_linear_72_60)"/>
<path d="M477 392.169L439.113 414L401 391.944V348.281L438.887 326L477 347.606V392.169Z" stroke="url(#paint20_linear_72_60)"/>
<circle cx="304.5" cy="310.5" r="6.4" fill="url(#paint21_radial_72_60)" stroke="url(#paint22_linear_72_60)" stroke-width="0.2"/>
<circle cx="452.5" cy="222.5" r="6.4" fill="url(#paint23_radial_72_60)" stroke="url(#paint24_linear_72_60)" stroke-width="0.2"/>
<circle cx="342" cy="244" r="4.9" fill="url(#paint25_radial_72_60)" stroke="url(#paint26_linear_72_60)" stroke-width="0.2"/>
<circle cx="476" cy="391" r="4.9" fill="url(#paint27_radial_72_60)" stroke="url(#paint28_linear_72_60)" stroke-width="0.2"/>
<circle cx="493" cy="287" r="4.9" fill="url(#paint29_radial_72_60)" stroke="url(#paint30_linear_72_60)" stroke-width="0.2"/>
<circle cx="531" cy="221" r="4.9" fill="url(#paint31_radial_72_60)" stroke="url(#paint32_linear_72_60)" stroke-width="0.2"/>
<circle cx="342" cy="157" r="4.9" fill="url(#paint33_radial_72_60)" stroke="url(#paint34_linear_72_60)" stroke-width="0.2"/>
<circle cx="455" cy="90" r="4.9" fill="url(#paint35_radial_72_60)" stroke="url(#paint36_linear_72_60)" stroke-width="0.2"/>
<circle cx="401" cy="349" r="3.9" fill="url(#paint37_radial_72_60)" stroke="url(#paint38_linear_72_60)" stroke-width="0.2"/>
<circle cx="417" cy="156" r="3.9" fill="url(#paint39_radial_72_60)" stroke="url(#paint40_linear_72_60)" stroke-width="0.2"/>
<circle cx="492" cy="157" r="3.9" fill="url(#paint41_radial_72_60)" stroke="url(#paint42_linear_72_60)" stroke-width="0.2"/>
<path d="M77 458.921L39.1134 481L1 458.693V414.535L38.8866 392L77 413.852V458.921Z" stroke="url(#paint43_linear_72_60)"/>
<path d="M115 392.921L77.1134 415L39 392.693V348.535L76.8866 326L115 347.852V392.921Z" stroke="url(#paint44_linear_72_60)"/>
<path d="M153 458.921L115.113 481L77 458.693V414.535L114.887 392L153 413.852V458.921Z" stroke="url(#paint45_linear_72_60)"/>
<path d="M115 436.169L77.1134 458L39 435.944V392.281L76.8866 370L115 391.606V436.169Z" stroke="url(#paint46_linear_72_60)"/>
<path d="M153 370.169L115.113 392L77 369.944V326.281L114.887 304L153 325.606V370.169Z" stroke="url(#paint47_linear_72_60)"/>
<path d="M190 436.169L152.612 458L115 435.944V392.281L152.388 370L190 391.606V436.169Z" stroke="url(#paint48_linear_72_60)"/>
<circle cx="77.5" cy="458.5" r="6.4" fill="url(#paint49_radial_72_60)" stroke="url(#paint50_linear_72_60)" stroke-width="0.2"/>
<circle cx="439.5" cy="414.5" r="6.4" fill="url(#paint51_radial_72_60)" stroke="url(#paint52_linear_72_60)" stroke-width="0.2"/>
<circle cx="115" cy="391" r="6.9" fill="url(#paint53_radial_72_60)" stroke="black" stroke-width="0.2"/>
<defs>
<linearGradient id="paint0_linear_72_60" x1="266" y1="244" x2="266" y2="333" gradientUnits="userSpaceOnUse">
<stop stop-color="#4C9DA3" stop-opacity="0.738347"/>
<stop offset="1" stop-color="#AEAEAE" stop-opacity="0"/>
</linearGradient>
<linearGradient id="paint1_linear_72_60" x1="379" y1="89" x2="379" y2="178" gradientUnits="userSpaceOnUse">
<stop stop-color="#4C9DA3" stop-opacity="0.738347"/>
<stop offset="1" stop-color="#AEAEAE" stop-opacity="0"/>
</linearGradient>
<linearGradient id="paint2_linear_72_60" x1="455" y1="221" x2="455" y2="310" gradientUnits="userSpaceOnUse">
<stop stop-color="#4C9DA3" stop-opacity="0.738347"/>
<stop offset="1" stop-color="#AEAEAE" stop-opacity="0"/>
</linearGradient>
<linearGradient id="paint3_linear_72_60" x1="304" y1="178" x2="304" y2="267" gradientUnits="userSpaceOnUse">
<stop stop-color="#4C9DA3" stop-opacity="0.738347"/>
<stop offset="1" stop-color="#AEAEAE" stop-opacity="0"/>
</linearGradient>
<linearGradient id="paint4_linear_72_60" x1="417" y1="23" x2="417" y2="112" gradientUnits="userSpaceOnUse">
<stop stop-color="#4C9DA3" stop-opacity="0.738347"/>
<stop offset="1" stop-color="#AEAEAE" stop-opacity="0"/>
</linearGradient>
<linearGradient id="paint5_linear_72_60" x1="493" y1="155" x2="493" y2="244" gradientUnits="userSpaceOnUse">
<stop stop-color="#4C9DA3" stop-opacity="0.738347"/>
<stop offset="1" stop-color="#AEAEAE" stop-opacity="0"/>
</linearGradient>
<linearGradient id="paint6_linear_72_60" x1="342" y1="244" x2="342" y2="333" gradientUnits="userSpaceOnUse">
<stop stop-color="#4C9DA3" stop-opacity="0.738347"/>
<stop offset="1" stop-color="#AEAEAE" stop-opacity="0"/>
</linearGradient>
<linearGradient id="paint7_linear_72_60" x1="455" y1="89" x2="455" y2="178" gradientUnits="userSpaceOnUse">
<stop stop-color="#4C9DA3" stop-opacity="0.738347"/>
<stop offset="1" stop-color="#AEAEAE" stop-opacity="0"/>
</linearGradient>
<linearGradient id="paint8_linear_72_60" x1="531" y1="221" x2="531" y2="310" gradientUnits="userSpaceOnUse">
<stop stop-color="#4C9DA3" stop-opacity="0.738347"/>
<stop offset="1" stop-color="#AEAEAE" stop-opacity="0"/>
</linearGradient>
<linearGradient id="paint9_linear_72_60" x1="304" y1="222" x2="304" y2="310" gradientUnits="userSpaceOnUse">
<stop stop-color="#4C9DA3" stop-opacity="0.738347"/>
<stop offset="1" stop-color="#AEAEAE" stop-opacity="0"/>
</linearGradient>
<linearGradient id="paint10_linear_72_60" x1="417" y1="67" x2="417" y2="155" gradientUnits="userSpaceOnUse">
<stop stop-color="#4C9DA3" stop-opacity="0.738347"/>
<stop offset="1" stop-color="#AEAEAE" stop-opacity="0"/>
</linearGradient>
<linearGradient id="paint11_linear_72_60" x1="493" y1="199" x2="493" y2="287" gradientUnits="userSpaceOnUse">
<stop stop-color="#4C9DA3" stop-opacity="0.738347"/>
<stop offset="1" stop-color="#AEAEAE" stop-opacity="0"/>
</linearGradient>
<linearGradient id="paint12_linear_72_60" x1="342" y1="156" x2="342" y2="244" gradientUnits="userSpaceOnUse">
<stop stop-color="#4C9DA3" stop-opacity="0.738347"/>
<stop offset="1" stop-color="#AEAEAE" stop-opacity="0"/>
</linearGradient>
<linearGradient id="paint13_linear_72_60" x1="455" y1="1" x2="455" y2="89" gradientUnits="userSpaceOnUse">
<stop stop-color="#4C9DA3" stop-opacity="0.738347"/>
<stop offset="1" stop-color="#AEAEAE" stop-opacity="0"/>
</linearGradient>
<linearGradient id="paint14_linear_72_60" x1="531" y1="133" x2="531" y2="221" gradientUnits="userSpaceOnUse">
<stop stop-color="#4C9DA3" stop-opacity="0.738347"/>
<stop offset="1" stop-color="#AEAEAE" stop-opacity="0"/>
</linearGradient>
<linearGradient id="paint15_linear_72_60" x1="379.5" y1="222" x2="379.5" y2="310" gradientUnits="userSpaceOnUse">
<stop stop-color="#4C9DA3" stop-opacity="0.738347"/>
<stop offset="1" stop-color="#AEAEAE" stop-opacity="0"/>
</linearGradient>
<linearGradient id="paint16_linear_72_60" x1="492.5" y1="67" x2="492.5" y2="155" gradientUnits="userSpaceOnUse">
<stop stop-color="#4C9DA3" stop-opacity="0.738347"/>
<stop offset="1" stop-color="#AEAEAE" stop-opacity="0"/>
</linearGradient>
<linearGradient id="paint17_linear_72_60" x1="568.5" y1="199" x2="568.5" y2="287" gradientUnits="userSpaceOnUse">
<stop stop-color="#4C9DA3" stop-opacity="0.738347"/>
<stop offset="1" stop-color="#AEAEAE" stop-opacity="0"/>
</linearGradient>
<linearGradient id="paint18_linear_72_60" x1="477" y1="392" x2="477" y2="480" gradientUnits="userSpaceOnUse">
<stop stop-color="#4C9DA3" stop-opacity="0.738347"/>
<stop offset="1" stop-color="#AEAEAE" stop-opacity="0"/>
</linearGradient>
<linearGradient id="paint19_linear_72_60" x1="401" y1="349" x2="401" y2="437" gradientUnits="userSpaceOnUse">
<stop stop-color="#4C9DA3" stop-opacity="0.738347"/>
<stop offset="1" stop-color="#AEAEAE" stop-opacity="0"/>
</linearGradient>
<linearGradient id="paint20_linear_72_60" x1="439" y1="326" x2="439" y2="414" gradientUnits="userSpaceOnUse">
<stop stop-color="#4C9DA3" stop-opacity="0.738347"/>
<stop offset="1" stop-color="#AEAEAE" stop-opacity="0"/>
</linearGradient>
<radialGradient id="paint21_radial_72_60" cx="0" cy="0" r="1" gradientUnits="userSpaceOnUse" gradientTransform="translate(304.5 310.5) rotate(90) scale(6.5)">
<stop stop-color="#0F0BAB"/>
<stop offset="0.0925926" stop-color="#4C9DA3"/>
<stop offset="0.467593" stop-color="#0F0D83" stop-opacity="0.738347"/>
</radialGradient>
<linearGradient id="paint22_linear_72_60" x1="304.5" y1="304" x2="304.5" y2="317" gradientUnits="userSpaceOnUse">
<stop stop-color="#4C9DA3" stop-opacity="0.738347"/>
<stop offset="1" stop-color="#AEAEAE" stop-opacity="0"/>
</linearGradient>
<radialGradient id="paint23_radial_72_60" cx="0" cy="0" r="1" gradientUnits="userSpaceOnUse" gradientTransform="translate(452.5 222.5) rotate(90) scale(6.5)">
<stop stop-color="#0F0BAB"/>
<stop offset="0.0925926" stop-color="#4C9DA3"/>
<stop offset="0.467593" stop-color="#0F0D83" stop-opacity="0.738347"/>
</radialGradient>
<linearGradient id="paint24_linear_72_60" x1="452.5" y1="216" x2="452.5" y2="229" gradientUnits="userSpaceOnUse">
<stop stop-color="#4C9DA3" stop-opacity="0.738347"/>
<stop offset="1" stop-color="#AEAEAE" stop-opacity="0"/>
</linearGradient>
<radialGradient id="paint25_radial_72_60" cx="0" cy="0" r="1" gradientUnits="userSpaceOnUse" gradientTransform="translate(342 244) rotate(90) scale(5)">
<stop stop-color="#0F0BAB"/>
<stop offset="0.0925926" stop-color="#4C9DA3"/>
<stop offset="0.467593" stop-color="#0F0D83" stop-opacity="0.738347"/>
</radialGradient>
<linearGradient id="paint26_linear_72_60" x1="342" y1="239" x2="342" y2="249" gradientUnits="userSpaceOnUse">
<stop stop-color="#4C9DA3" stop-opacity="0.738347"/>
<stop offset="1" stop-color="#AEAEAE" stop-opacity="0"/>
</linearGradient>
<radialGradient id="paint27_radial_72_60" cx="0" cy="0" r="1" gradientUnits="userSpaceOnUse" gradientTransform="translate(476 391) rotate(90) scale(5)">
<stop stop-color="#0F0BAB"/>
<stop offset="0.0925926" stop-color="#4C9DA3"/>
<stop offset="0.467593" stop-color="#0F0D83" stop-opacity="0.738347"/>
</radialGradient>
<linearGradient id="paint28_linear_72_60" x1="476" y1="386" x2="476" y2="396" gradientUnits="userSpaceOnUse">
<stop stop-color="#4C9DA3" stop-opacity="0.738347"/>
<stop offset="1" stop-color="#AEAEAE" stop-opacity="0"/>
</linearGradient>
<radialGradient id="paint29_radial_72_60" cx="0" cy="0" r="1" gradientUnits="userSpaceOnUse" gradientTransform="translate(493 287) rotate(90) scale(5)">
<stop stop-color="#0F0BAB"/>
<stop offset="0.0925926" stop-color="#4C9DA3"/>
<stop offset="0.467593" stop-color="#0F0D83" stop-opacity="0.738347"/>
</radialGradient>
<linearGradient id="paint30_linear_72_60" x1="493" y1="282" x2="493" y2="292" gradientUnits="userSpaceOnUse">
<stop stop-color="#4C9DA3" stop-opacity="0.738347"/>
<stop offset="1" stop-color="#AEAEAE" stop-opacity="0"/>
</linearGradient>
<radialGradient id="paint31_radial_72_60" cx="0" cy="0" r="1" gradientUnits="userSpaceOnUse" gradientTransform="translate(531 221) rotate(90) scale(5)">
<stop stop-color="#0F0BAB"/>
<stop offset="0.0925926" stop-color="#4C9DA3"/>
<stop offset="0.467593" stop-color="#0F0D83" stop-opacity="0.738347"/>
</radialGradient>
<linearGradient id="paint32_linear_72_60" x1="531" y1="216" x2="531" y2="226" gradientUnits="userSpaceOnUse">
<stop stop-color="#4C9DA3" stop-opacity="0.738347"/>
<stop offset="1" stop-color="#AEAEAE" stop-opacity="0"/>
</linearGradient>
<radialGradient id="paint33_radial_72_60" cx="0" cy="0" r="1" gradientUnits="userSpaceOnUse" gradientTransform="translate(342 157) rotate(90) scale(5)">
<stop stop-color="#0F0BAB"/>
<stop offset="0.0925926" stop-color="#4C9DA3"/>
<stop offset="0.467593" stop-color="#0F0D83" stop-opacity="0.738347"/>
</radialGradient>
<linearGradient id="paint34_linear_72_60" x1="342" y1="152" x2="342" y2="162" gradientUnits="userSpaceOnUse">
<stop stop-color="#4C9DA3" stop-opacity="0.738347"/>
<stop offset="1" stop-color="#AEAEAE" stop-opacity="0"/>
</linearGradient>
<radialGradient id="paint35_radial_72_60" cx="0" cy="0" r="1" gradientUnits="userSpaceOnUse" gradientTransform="translate(455 90) rotate(90) scale(5)">
<stop stop-color="#0F0BAB"/>
<stop offset="0.0925926" stop-color="#4C9DA3"/>
<stop offset="0.467593" stop-color="#0F0D83" stop-opacity="0.738347"/>
</radialGradient>
<linearGradient id="paint36_linear_72_60" x1="455" y1="85" x2="455" y2="95" gradientUnits="userSpaceOnUse">
<stop stop-color="#4C9DA3" stop-opacity="0.738347"/>
<stop offset="1" stop-color="#AEAEAE" stop-opacity="0"/>
</linearGradient>
<radialGradient id="paint37_radial_72_60" cx="0" cy="0" r="1" gradientUnits="userSpaceOnUse" gradientTransform="translate(401 349) rotate(90) scale(4)">
<stop stop-color="#0F0BAB"/>
<stop offset="0.0925926" stop-color="#4C9DA3"/>
<stop offset="0.467593" stop-color="#0F0D83" stop-opacity="0.738347"/>
</radialGradient>
<linearGradient id="paint38_linear_72_60" x1="401" y1="345" x2="401" y2="353" gradientUnits="userSpaceOnUse">
<stop stop-color="#4C9DA3" stop-opacity="0.738347"/>
<stop offset="1" stop-color="#AEAEAE" stop-opacity="0"/>
</linearGradient>
<radialGradient id="paint39_radial_72_60" cx="0" cy="0" r="1" gradientUnits="userSpaceOnUse" gradientTransform="translate(417 156) rotate(90) scale(4)">
<stop stop-color="#0F0BAB"/>
<stop offset="0.0925926" stop-color="#4C9DA3"/>
<stop offset="0.467593" stop-color="#0F0D83" stop-opacity="0.738347"/>
</radialGradient>
<linearGradient id="paint40_linear_72_60" x1="417" y1="152" x2="417" y2="160" gradientUnits="userSpaceOnUse">
<stop stop-color="#4C9DA3" stop-opacity="0.738347"/>
<stop offset="1" stop-color="#AEAEAE" stop-opacity="0"/>
</linearGradient>
<radialGradient id="paint41_radial_72_60" cx="0" cy="0" r="1" gradientUnits="userSpaceOnUse" gradientTransform="translate(492 157) rotate(90) scale(4)">
<stop stop-color="#0F0BAB"/>
<stop offset="0.0925926" stop-color="#4C9DA3"/>
<stop offset="0.467593" stop-color="#0F0D83" stop-opacity="0.738347"/>
</radialGradient>
<linearGradient id="paint42_linear_72_60" x1="492" y1="153" x2="492" y2="161" gradientUnits="userSpaceOnUse">
<stop stop-color="#4C9DA3" stop-opacity="0.738347"/>
<stop offset="1" stop-color="#AEAEAE" stop-opacity="0"/>
</linearGradient>
<linearGradient id="paint43_linear_72_60" x1="39" y1="392" x2="39" y2="481" gradientUnits="userSpaceOnUse">
<stop stop-color="#4C9DA3"/>
<stop offset="0.973958" stop-color="#AE60EB"/>
</linearGradient>
<linearGradient id="paint44_linear_72_60" x1="77" y1="326" x2="77" y2="415" gradientUnits="userSpaceOnUse">
<stop stop-color="#4C9DA3"/>
<stop offset="0.973958" stop-color="#AE60EB"/>
</linearGradient>
<linearGradient id="paint45_linear_72_60" x1="115" y1="392" x2="115" y2="481" gradientUnits="userSpaceOnUse">
<stop stop-color="#4C9DA3"/>
<stop offset="0.973958" stop-color="#AE60EB"/>
</linearGradient>
<linearGradient id="paint46_linear_72_60" x1="77" y1="370" x2="77" y2="458" gradientUnits="userSpaceOnUse">
<stop stop-color="#4C9DA3"/>
<stop offset="0.973958" stop-color="#AE60EB"/>
</linearGradient>
<linearGradient id="paint47_linear_72_60" x1="115" y1="304" x2="115" y2="392" gradientUnits="userSpaceOnUse">
<stop stop-color="#4C9DA3"/>
<stop offset="0.973958" stop-color="#AE60EB"/>
</linearGradient>
<linearGradient id="paint48_linear_72_60" x1="152.5" y1="370" x2="152.5" y2="458" gradientUnits="userSpaceOnUse">
<stop stop-color="#4C9DA3"/>
<stop offset="0.973958" stop-color="#AE60EB"/>
</linearGradient>
<radialGradient id="paint49_radial_72_60" cx="0" cy="0" r="1" gradientUnits="userSpaceOnUse" gradientTransform="translate(77.5 458.5) rotate(90) scale(6.5)">
<stop stop-color="#0F0BAB"/>
<stop offset="0.0925926" stop-color="#4C9DA3"/>
<stop offset="0.467593" stop-color="#0F0D83" stop-opacity="0.738347"/>
</radialGradient>
<linearGradient id="paint50_linear_72_60" x1="77.5" y1="452" x2="77.5" y2="465" gradientUnits="userSpaceOnUse">
<stop stop-color="#4C9DA3"/>
<stop offset="0.973958" stop-color="#AE60EB"/>
</linearGradient>
<radialGradient id="paint51_radial_72_60" cx="0" cy="0" r="1" gradientUnits="userSpaceOnUse" gradientTransform="translate(439.5 414.5) rotate(90) scale(6.5)">
<stop stop-color="#0F0BAB"/>
<stop offset="0.0925926" stop-color="#4C9DA3"/>
<stop offset="0.467593" stop-color="#0F0D83" stop-opacity="0.738347"/>
</radialGradient>
<linearGradient id="paint52_linear_72_60" x1="439.5" y1="408" x2="439.5" y2="421" gradientUnits="userSpaceOnUse">
<stop stop-color="#4C9DA3" stop-opacity="0.738347"/>
<stop offset="1" stop-color="#AEAEAE" stop-opacity="0"/>
</linearGradient>
<radialGradient id="paint53_radial_72_60" cx="0" cy="0" r="1" gradientUnits="userSpaceOnUse" gradientTransform="translate(115 391) rotate(90) scale(7)">
<stop stop-color="#0F0BAB"/>
<stop offset="0.0925926" stop-color="#4C9DA3"/>
<stop offset="0.467593" stop-color="#0F0D83" stop-opacity="0.738347"/>
</radialGradient>
</defs>
</svg>
