<svg width="254" height="50" viewBox="0 0 254 50" fill="none" xmlns="http://www.w3.org/2000/svg">
<path d="M22.9043 11.4062V37H18.4922L7.01367 18.666V37H2.60156V11.4062H7.01367L18.5273 29.7754V11.4062H22.9043ZM39.1816 32.5176V17.9805H43.4355V37H39.4277L39.1816 32.5176ZM39.7793 28.5625L41.2031 28.5273C41.2031 29.8047 41.0625 30.9824 40.7812 32.0605C40.5 33.127 40.0664 34.0586 39.4805 34.8555C38.8945 35.6406 38.1445 36.2559 37.2305 36.7012C36.3164 37.1348 35.2207 37.3516 33.9434 37.3516C33.0176 37.3516 32.168 37.2168 31.3945 36.9473C30.6211 36.6777 29.9531 36.2617 29.3906 35.6992C28.8398 35.1367 28.4121 34.4043 28.1074 33.502C27.8027 32.5996 27.6504 31.5215 27.6504 30.2676V17.9805H31.8867V30.3027C31.8867 30.9941 31.9688 31.5742 32.1328 32.043C32.2969 32.5 32.5195 32.8691 32.8008 33.1504C33.082 33.4316 33.4102 33.6309 33.7852 33.748C34.1602 33.8652 34.5586 33.9238 34.9805 33.9238C36.1875 33.9238 37.1367 33.6895 37.8281 33.2207C38.5312 32.7402 39.0293 32.0957 39.3223 31.2871C39.627 30.4785 39.7793 29.5703 39.7793 28.5625ZM55.5469 33.9766C56.2383 33.9766 56.8594 33.8418 57.4102 33.5723C57.9727 33.291 58.4238 32.9043 58.7637 32.4121C59.1152 31.9199 59.3086 31.3516 59.3438 30.707H63.334C63.3105 31.9375 62.9473 33.0566 62.2441 34.0645C61.541 35.0723 60.6094 35.875 59.4492 36.4727C58.2891 37.0586 57.0059 37.3516 55.5996 37.3516C54.1465 37.3516 52.8809 37.1055 51.8027 36.6133C50.7246 36.1094 49.8281 35.418 49.1133 34.5391C48.3984 33.6602 47.8594 32.6465 47.4961 31.498C47.1445 30.3496 46.9688 29.1191 46.9688 27.8066V27.1914C46.9688 25.8789 47.1445 24.6484 47.4961 23.5C47.8594 22.3398 48.3984 21.3203 49.1133 20.4414C49.8281 19.5625 50.7246 18.877 51.8027 18.3848C52.8809 17.8809 54.1406 17.6289 55.582 17.6289C57.1055 17.6289 58.4414 17.9336 59.5898 18.543C60.7383 19.1406 61.6406 19.9785 62.2969 21.0566C62.9648 22.123 63.3105 23.3652 63.334 24.7832H59.3438C59.3086 24.0801 59.1328 23.4473 58.8164 22.8848C58.5117 22.3105 58.0781 21.8535 57.5156 21.5137C56.9648 21.1738 56.3027 21.0039 55.5293 21.0039C54.6738 21.0039 53.9648 21.1797 53.4023 21.5312C52.8398 21.8711 52.4004 22.3398 52.084 22.9375C51.7676 23.5234 51.5391 24.1855 51.3984 24.9238C51.2695 25.6504 51.2051 26.4062 51.2051 27.1914V27.8066C51.2051 28.5918 51.2695 29.3535 51.3984 30.0918C51.5273 30.8301 51.75 31.4922 52.0664 32.0781C52.3945 32.6523 52.8398 33.1152 53.4023 33.4668C53.9648 33.8066 54.6797 33.9766 55.5469 33.9766ZM71.1211 10V37H66.8672V10H71.1211ZM84.1465 37.3516C82.7402 37.3516 81.4688 37.123 80.332 36.666C79.207 36.1973 78.2461 35.5469 77.4492 34.7148C76.6641 33.8828 76.0605 32.9043 75.6387 31.7793C75.2168 30.6543 75.0059 29.4414 75.0059 28.1406V27.4375C75.0059 25.9492 75.2227 24.6016 75.6562 23.3945C76.0898 22.1875 76.6934 21.1562 77.4668 20.3008C78.2402 19.4336 79.1543 18.7715 80.209 18.3145C81.2637 17.8574 82.4062 17.6289 83.6367 17.6289C84.9961 17.6289 86.1855 17.8574 87.2051 18.3145C88.2246 18.7715 89.0684 19.416 89.7363 20.248C90.416 21.0684 90.9199 22.0469 91.248 23.1836C91.5879 24.3203 91.7578 25.5742 91.7578 26.9453V28.7559H77.0625V25.7148H87.5742V25.3809C87.5508 24.6191 87.3984 23.9043 87.1172 23.2363C86.8477 22.5684 86.4316 22.0293 85.8691 21.6191C85.3066 21.209 84.5566 21.0039 83.6191 21.0039C82.916 21.0039 82.2891 21.1562 81.7383 21.4609C81.1992 21.7539 80.748 22.1816 80.3848 22.7441C80.0215 23.3066 79.7402 23.9863 79.541 24.7832C79.3535 25.5684 79.2598 26.4531 79.2598 27.4375V28.1406C79.2598 28.9727 79.3711 29.7461 79.5938 30.4609C79.8281 31.1641 80.168 31.7793 80.6133 32.3066C81.0586 32.834 81.5977 33.25 82.2305 33.5547C82.8633 33.8477 83.584 33.9941 84.3926 33.9941C85.4121 33.9941 86.3203 33.7891 87.1172 33.3789C87.9141 32.9688 88.6055 32.3887 89.1914 31.6387L91.4238 33.8008C91.0137 34.3984 90.4805 34.9727 89.8242 35.5234C89.168 36.0625 88.3652 36.502 87.416 36.8418C86.4785 37.1816 85.3887 37.3516 84.1465 37.3516ZM94.2539 27.7012V27.2969C94.2539 25.9258 94.4531 24.6543 94.8516 23.4824C95.25 22.2988 95.8242 21.2734 96.5742 20.4062C97.3359 19.5273 98.2617 18.8477 99.3516 18.3672C100.453 17.875 101.695 17.6289 103.078 17.6289C104.473 17.6289 105.715 17.875 106.805 18.3672C107.906 18.8477 108.838 19.5273 109.6 20.4062C110.361 21.2734 110.941 22.2988 111.34 23.4824C111.738 24.6543 111.938 25.9258 111.938 27.2969V27.7012C111.938 29.0723 111.738 30.3438 111.34 31.5156C110.941 32.6875 110.361 33.7129 109.6 34.5918C108.838 35.459 107.912 36.1387 106.822 36.6309C105.732 37.1113 104.496 37.3516 103.113 37.3516C101.719 37.3516 100.471 37.1113 99.3691 36.6309C98.2793 36.1387 97.3535 35.459 96.5918 34.5918C95.8301 33.7129 95.25 32.6875 94.8516 31.5156C94.4531 30.3438 94.2539 29.0723 94.2539 27.7012ZM98.4902 27.2969V27.7012C98.4902 28.5566 98.5781 29.3652 98.7539 30.127C98.9297 30.8887 99.2051 31.5566 99.5801 32.1309C99.9551 32.7051 100.436 33.1562 101.021 33.4844C101.607 33.8125 102.305 33.9766 103.113 33.9766C103.898 33.9766 104.578 33.8125 105.152 33.4844C105.738 33.1562 106.219 32.7051 106.594 32.1309C106.969 31.5566 107.244 30.8887 107.42 30.127C107.607 29.3652 107.701 28.5566 107.701 27.7012V27.2969C107.701 26.4531 107.607 25.6562 107.42 24.9062C107.244 24.1445 106.963 23.4707 106.576 22.8848C106.201 22.2988 105.721 21.8418 105.135 21.5137C104.561 21.1738 103.875 21.0039 103.078 21.0039C102.281 21.0039 101.59 21.1738 101.004 21.5137C100.43 21.8418 99.9551 22.2988 99.5801 22.8848C99.2051 23.4707 98.9297 24.1445 98.7539 24.9062C98.5781 25.6562 98.4902 26.4531 98.4902 27.2969Z" fill="#3D0767"/>
<rect x="128" width="126" height="50" rx="5" fill="#3D0767"/>
<path d="M167.422 28.8613H170.797C170.621 30.4785 170.158 31.9258 169.408 33.2031C168.658 34.4805 167.598 35.4941 166.227 36.2441C164.855 36.9824 163.145 37.3516 161.094 37.3516C159.594 37.3516 158.229 37.0703 156.998 36.5078C155.779 35.9453 154.73 35.1484 153.852 34.1172C152.973 33.0742 152.293 31.8262 151.812 30.373C151.344 28.9082 151.109 27.2793 151.109 25.4863V22.9375C151.109 21.1445 151.344 19.5215 151.812 18.0684C152.293 16.6035 152.979 15.3496 153.869 14.3066C154.771 13.2637 155.855 12.4609 157.121 11.8984C158.387 11.3359 159.811 11.0547 161.393 11.0547C163.326 11.0547 164.961 11.418 166.297 12.1445C167.633 12.8711 168.67 13.8789 169.408 15.168C170.158 16.4453 170.621 17.9277 170.797 19.6152H167.422C167.258 18.4199 166.953 17.3945 166.508 16.5391C166.062 15.6719 165.43 15.0039 164.609 14.5352C163.789 14.0664 162.717 13.832 161.393 13.832C160.256 13.832 159.254 14.0488 158.387 14.4824C157.531 14.916 156.811 15.5313 156.225 16.3281C155.65 17.125 155.217 18.0801 154.924 19.1934C154.631 20.3066 154.484 21.543 154.484 22.9023V25.4863C154.484 26.7402 154.613 27.918 154.871 29.0195C155.141 30.1211 155.545 31.0879 156.084 31.9199C156.623 32.752 157.309 33.4082 158.141 33.8887C158.973 34.3574 159.957 34.5918 161.094 34.5918C162.535 34.5918 163.684 34.3633 164.539 33.9062C165.395 33.4492 166.039 32.793 166.473 31.9375C166.918 31.082 167.234 30.0566 167.422 28.8613ZM174.066 27.7012V27.2969C174.066 25.9258 174.266 24.6543 174.664 23.4824C175.062 22.2988 175.637 21.2734 176.387 20.4062C177.137 19.5273 178.045 18.8477 179.111 18.3672C180.178 17.875 181.373 17.6289 182.697 17.6289C184.033 17.6289 185.234 17.875 186.301 18.3672C187.379 18.8477 188.293 19.5273 189.043 20.4062C189.805 21.2734 190.385 22.2988 190.783 23.4824C191.182 24.6543 191.381 25.9258 191.381 27.2969V27.7012C191.381 29.0723 191.182 30.3438 190.783 31.5156C190.385 32.6875 189.805 33.7129 189.043 34.5918C188.293 35.459 187.385 36.1387 186.318 36.6309C185.264 37.1113 184.068 37.3516 182.732 37.3516C181.396 37.3516 180.195 37.1113 179.129 36.6309C178.062 36.1387 177.148 35.459 176.387 34.5918C175.637 33.7129 175.062 32.6875 174.664 31.5156C174.266 30.3438 174.066 29.0723 174.066 27.7012ZM177.318 27.2969V27.7012C177.318 28.6504 177.43 29.5469 177.652 30.3906C177.875 31.2227 178.209 31.9609 178.654 32.6055C179.111 33.25 179.68 33.7598 180.359 34.1348C181.039 34.498 181.83 34.6797 182.732 34.6797C183.623 34.6797 184.402 34.498 185.07 34.1348C185.75 33.7598 186.312 33.25 186.758 32.6055C187.203 31.9609 187.537 31.2227 187.76 30.3906C187.994 29.5469 188.111 28.6504 188.111 27.7012V27.2969C188.111 26.3594 187.994 25.4746 187.76 24.6426C187.537 23.7988 187.197 23.0547 186.74 22.4102C186.295 21.7539 185.732 21.2383 185.053 20.8633C184.385 20.4883 183.6 20.3008 182.697 20.3008C181.807 20.3008 181.021 20.4883 180.342 20.8633C179.674 21.2383 179.111 21.7539 178.654 22.4102C178.209 23.0547 177.875 23.7988 177.652 24.6426C177.43 25.4746 177.318 26.3594 177.318 27.2969ZM207.447 33.3086V10H210.717V37H207.729L207.447 33.3086ZM194.65 27.7012V27.332C194.65 25.8789 194.826 24.5605 195.178 23.377C195.541 22.1816 196.051 21.1562 196.707 20.3008C197.375 19.4453 198.166 18.7891 199.08 18.332C200.006 17.8633 201.037 17.6289 202.174 17.6289C203.369 17.6289 204.412 17.8398 205.303 18.2617C206.205 18.6719 206.967 19.2754 207.588 20.0723C208.221 20.8574 208.719 21.8066 209.082 22.9199C209.445 24.0332 209.697 25.293 209.838 26.6992V28.3164C209.709 29.7109 209.457 30.9648 209.082 32.0781C208.719 33.1914 208.221 34.1406 207.588 34.9258C206.967 35.7109 206.205 36.3145 205.303 36.7363C204.4 37.1465 203.346 37.3516 202.139 37.3516C201.025 37.3516 200.006 37.1113 199.08 36.6309C198.166 36.1504 197.375 35.4766 196.707 34.6094C196.051 33.7422 195.541 32.7227 195.178 31.5508C194.826 30.3672 194.65 29.084 194.65 27.7012ZM197.92 27.332V27.7012C197.92 28.6504 198.014 29.541 198.201 30.373C198.4 31.2051 198.705 31.9375 199.115 32.5703C199.525 33.2031 200.047 33.7012 200.68 34.0645C201.312 34.416 202.068 34.5918 202.947 34.5918C204.025 34.5918 204.91 34.3633 205.602 33.9062C206.305 33.4492 206.867 32.8457 207.289 32.0957C207.711 31.3457 208.039 30.5312 208.273 29.6523V25.416C208.133 24.7715 207.928 24.1504 207.658 23.5527C207.4 22.9434 207.061 22.4043 206.639 21.9355C206.229 21.4551 205.719 21.0742 205.109 20.793C204.512 20.5117 203.803 20.3711 202.982 20.3711C202.092 20.3711 201.324 20.5586 200.68 20.9336C200.047 21.2969 199.525 21.8008 199.115 22.4453C198.705 23.0781 198.4 23.8164 198.201 24.6602C198.014 25.4922 197.92 26.3828 197.92 27.332ZM223.672 37.3516C222.348 37.3516 221.146 37.1289 220.068 36.6836C219.002 36.2266 218.082 35.5879 217.309 34.7676C216.547 33.9473 215.961 32.9746 215.551 31.8496C215.141 30.7246 214.936 29.4941 214.936 28.1582V27.4199C214.936 25.873 215.164 24.4961 215.621 23.2891C216.078 22.0703 216.699 21.0391 217.484 20.1953C218.27 19.3516 219.16 18.7129 220.156 18.2793C221.152 17.8457 222.184 17.6289 223.25 17.6289C224.609 17.6289 225.781 17.8633 226.766 18.332C227.762 18.8008 228.576 19.457 229.209 20.3008C229.842 21.1328 230.311 22.1172 230.615 23.2539C230.92 24.3789 231.072 25.6094 231.072 26.9453V28.4043H216.869V25.75H227.82V25.5039C227.773 24.6602 227.598 23.8398 227.293 23.043C227 22.2461 226.531 21.5898 225.887 21.0742C225.242 20.5586 224.363 20.3008 223.25 20.3008C222.512 20.3008 221.832 20.459 221.211 20.7754C220.59 21.0801 220.057 21.5371 219.611 22.1465C219.166 22.7559 218.82 23.5 218.574 24.3789C218.328 25.2578 218.205 26.2715 218.205 27.4199V28.1582C218.205 29.0605 218.328 29.9102 218.574 30.707C218.832 31.4922 219.201 32.1836 219.682 32.7812C220.174 33.3789 220.766 33.8477 221.457 34.1875C222.16 34.5273 222.957 34.6973 223.848 34.6973C224.996 34.6973 225.969 34.4629 226.766 33.9941C227.562 33.5254 228.26 32.8984 228.857 32.1133L230.826 33.6777C230.416 34.2988 229.895 34.8906 229.262 35.4531C228.629 36.0156 227.85 36.4727 226.924 36.8242C226.01 37.1758 224.926 37.3516 223.672 37.3516Z" fill="white"/>
</svg>
